<?xml version="1.0" encoding="UTF-8"?><svg id="Calque_1" xmlns="http://www.w3.org/2000/svg" viewBox="0 0 719.12 767.07"><defs><style>.cls-1{fill:#005fc3;}.cls-2{fill:#00cd78;}</style></defs><path class="cls-2" d="M428.03,349.88c-.27-4.92-1.26-9.72-2.66-14.42-1.94-6.52-4.14-12.96-6.06-19.48-2.7-9.13-4.63-18.44-4.92-27.99-.23-7.77,1.12-15.29,4.22-22.46,4.53-10.5,9.78-20.61,16.72-29.74,8.03-10.56,17.54-19.59,28.55-27,3.03-2.04,6.3-3.62,9.76-4.84,4-1.42,7.91-1.18,11.85.23,3.76,1.35,7.17,3.33,10.41,5.64,1.93,1.38,3.91,2.72,5.71,4.27,8.24,7.07,17.64,12.32,27.22,17.28,7.8,4.05,15.65,8.02,22.82,13.16,14.35,10.31,26,23.14,35.31,38.13,3.09,4.98,6.04,10.06,7.76,15.71,1.25,4.09,2.25,8.23,1.45,12.6-.68,3.72-2.37,6.85-4.95,9.55-1.54,1.61-3.16,3.14-4.95,4.45-12.8,9.35-24.93,19.57-37.4,29.34-7.87,6.16-16.06,11.85-24.72,16.86-3.4,1.96-6.93,3.41-10.82,4.04-3.37.55-6.59,1.68-9.74,2.98-7.39,3.05-14.85,5.89-22.15,9.15-4.75,2.12-9.82,3.01-14.98,3.39-3.26.24-6.32-.51-9.09-2.21-4.52-2.77-8.89-5.69-12.79-9.4-4.35-4.15-8.88-8.14-13.27-12.26-1.52-1.43-2.42-2.94-2.48-5.12-.11-3.95-.5-7.9-.78-11.85Z"/><path class="cls-2" d="M290.39,468.47c-.02-9.66,2.49-18.62,7.67-26.78,2.78-4.37,5.08-8.94,6.67-13.86.27-.83.6-1.63.89-2.45,1.76-4.98,4.92-8.81,9.42-11.55,3.99-2.43,7.97-4.88,12-7.24,5.86-3.43,12.18-5.28,19-5.25,8.58.03,17.06-.86,25.5-2.46,5.98-1.14,11.81-.35,17.38,2.27,3.57,1.68,7.07,3.54,10.94,4.54,5.01,1.3,10.12,1.8,15.25,2.29,3.84.37,7.23,1.6,9.82,4.64,1.15,1.35,1.98,2.87,2.52,4.53,1.77,5.41,3.5,10.83,5.25,16.25.18.54.31,1.11,0,1.61-.93,1.52-.52,3.08-.11,4.6.88,3.23.88,6.38-.34,9.55-3.81,9.89-7.11,20-11.58,29.62-5.61,12.08-12.36,23.55-19.82,34.59-3.47,5.14-7.37,9.93-11.88,14.2-6.87,6.52-14.8,11.05-24.18,12.92-10.74,2.15-19.71-.68-26.84-9.13-2.71-3.22-5.09-6.68-7.48-10.13-1.12-1.63-2.28-3.24-3.45-4.84-3.33-4.54-7.35-8.27-12.36-10.93-2.31-1.22-4.54-2.6-6.75-3.98-9.46-5.93-15.19-14.36-16.98-25.43-.41-2.52-.51-5.04-.56-7.58Z"/><path class="cls-2" d="M402.51,395.86c-.48-2.48-2.3-3.23-4.17-3.98-6.12-2.44-12.4-3.81-19.03-3.09-2.62.28-5.23-.05-7.83-.33-5.67-.6-11.22.02-16.75,1.19-6.99,1.47-14.04,2.44-21.2,2.37-6.82-.06-13.17-1.6-18.68-5.86-3.13-2.42-5.53-5.45-7.43-8.87-1.39-2.49-2.68-5.03-3.96-7.58-2.05-4.06-4.6-7.75-7.76-11.04-2.48-2.57-4.87-5.21-7.26-7.87-9.35-10.39-11.71-22.38-7.77-35.61,3.41-11.46,8.96-21.79,17.14-30.61,5.82-6.28,11.78-12.43,17.26-19.01.46-.55.99-1.03,1.48-1.55,3.08-3.3,6.81-5.28,11.31-5.99,4.3-.68,8.55-1.59,12.9-1.99,4.18-.38,8.2.29,12.21,1.31,9.4,2.4,17.42,7.35,24.98,13.27,11.46,8.99,19.56,20.35,24.91,33.84,3.15,7.94,6.68,15.73,10.06,23.58,2.33,5.4,4.02,11,5.04,16.79,1.07,6.06.07,12.01-1.57,17.84-1.37,4.88-2.86,9.72-3.76,14.71-.68,3.73-1.3,7.49-1.04,11.32.06.85-.08,1.6-.84,2.07-2.68,1.67-5.37,3.32-8.23,5.08Z"/><path class="cls-2" d="M480.34,694.98c1.89-4.26,3-8.69,3.83-13.2,1.85-10.17,2.42-20.43,2.52-30.75.15-15.48-1.06-30.85-2.81-46.22-2.54-22.32-8.46-43.73-15.75-64.89-7.39-21.46-15.13-42.81-21.98-64.46-.86-2.72-2.06-5.31-3.23-7.91-.88-1.95-1.64-3.95-1.66-6.15-.04-3.72,1.98-6.96,5.23-8.33,3.13-1.32,6.64-.45,9.3,2.3,1.35,1.39,2.23,3.07,3.06,4.78,3.14,6.42,5.21,13.24,7.35,20.03,4.6,14.56,10.1,28.81,14.91,43.3,3.86,11.64,8.19,23.12,11.52,34.93,3.74,13.27,6.58,26.71,8.34,40.4,2.27,17.63,3.73,35.31,3.54,53.09-.13,11.66-.99,23.27-3.23,34.74-1.11,5.69-2.69,11.23-5.2,16.48-1.13,2.36-2.42,4.63-4.06,6.69-1.11,1.38-2.41,2.52-3.9,3.44-3.46,2.13-7.06,2.53-10.87.89-4.08-1.75-7.49-4.42-10.6-7.51-4.69-4.65-8.72-9.84-12.55-15.21-9.83-13.78-18-28.52-25.2-43.81-10.57-22.42-19.75-45.41-28.2-68.71-1.11-3.06-1.93-6.21-1.78-9.52.1-2.2.73-4.2,2.29-5.83,2.49-2.59,5.79-3.03,8.87-1.18,1.67,1,2.9,2.44,3.97,4.04,1.82,2.72,2.92,5.78,4.05,8.82,9.14,24.56,18.81,48.9,30.47,72.39,6.84,13.79,14.62,27.03,24.14,39.18,1.42,1.81,2.93,3.54,4.48,5.24.9.99,1.96,1.83,3.15,2.92Z"/><path class="cls-2" d="M456.43,398.42c2.86,2.27,6.15,2.46,9.53,2.35,6.74-.23,13.44-.8,20.1-1.88,7.35-1.19,14.75-2.01,22.16-2.75,13.83-1.39,27.68-1.92,41.56-1.41,5.01.18,9.99.8,14.62,2.8,9.37,4.04,15.54,11,18.23,20.88,1.11,4.07.3,8.03-1.52,11.76-1.12,2.29-2.53,4.42-4.35,6.21-5.86,5.8-11.75,11.57-17.69,17.29-1.89,1.82-4.06,3.32-6.35,4.58-5.2,2.87-10.4,5.73-15.83,8.17-4.97,2.23-10.14,3.62-15.63,3.48-5.91-.14-11.7.45-17.29,2.5-2.61.96-5.14.56-7.56-.72-2.05-1.08-3.95-2.38-5.53-4.07-8.27-8.88-16.26-18.02-22.95-28.17-5.06-7.67-9.54-15.7-13.87-23.81-1.27-2.38-2.37-4.82-3.33-7.35-.45-1.18-.41-1.99.43-3,1.82-2.18,3.47-4.5,5.28-6.87Z"/><path class="cls-2" d="M603.56,622.07c.24.4.49.16.75.02,4.37-2.23,7.98-5.4,11.22-9.04,4.85-5.46,9.35-11.19,13.69-17.05,1.57-2.11,3.33-4.03,5.22-5.84,1.04-.99,2.19-1.81,3.49-2.44,2.89-1.4,5.58-1.01,7.97,1.01,2.34,1.99,3.38,4.51,2.59,7.64-.87,3.44-2.57,6.48-4.6,9.32-5.36,7.47-11.06,14.7-17.39,21.38-5.87,6.19-12.69,10.95-21,13.34-2.06.59-4.18,1.13-6.3,1.06-1.97-.06-2.74.82-3.43,2.46-1.94,4.6-4.28,9.01-6.94,13.24-2.67,4.25-5.75,8.16-9.53,11.48-3.37,2.96-7.12,5.33-11.39,6.7-6.23,1.99-12.33,1.51-18.27-1.25-4.9-2.28-8.93-5.69-12.61-9.57-7.64-8.05-12.92-17.58-17.12-27.75-2.27-5.49-4.35-11.04-5.51-16.89-.49-2.45-.4-4.89.28-7.29.82-2.87,2.62-4.89,5.53-5.69,3.07-.84,5.61.3,7.69,2.55,2.04,2.21,3.07,4.96,3.86,7.8,1.81,6.5,4.16,12.78,7.13,18.84,2.91,5.94,6.38,11.49,10.89,16.36,1.57,1.69,3.22,3.28,5.15,4.57,3.85,2.58,7.17,2.53,11-.13,2.71-1.89,4.84-4.34,6.69-7.02,2.76-3.98,4.94-8.29,6.91-12.71.38-.85.43-1.35-.42-1.98-10.65-7.84-16.02-18.95-19.18-31.35-1.61-6.32-2.45-12.76-1.93-19.31.55-6.91,1.9-13.63,5.15-19.85,1.22-2.33,2.69-4.49,4.5-6.39,8.14-8.58,20.1-9.33,29.3-.99,5.12,4.64,7.9,10.64,9.46,17.23,2.07,8.72,2.32,17.55,1.27,26.45-.82,6.93-2.19,13.75-4.07,20.46-.06.21,0,.46.01.69-.19-.03-.29.06-.25.24,0,.03.15.06.2.03.19-.1.18-.21,0-.32ZM586.26,618.12c.37-1.48.64-2.63.94-3.78,2.47-9.56,3.87-19.23,3.04-29.14-.33-3.96-1.03-7.84-2.79-11.46-.63-1.29-1.36-2.51-2.45-3.47-1.67-1.47-2.95-1.44-4.56.13-1.09,1.07-1.84,2.38-2.39,3.79-1.02,2.59-1.72,5.27-2.05,8.02-1.24,10.12.72,19.68,5.23,28.75,1.27,2.55,2.9,4.86,5.04,7.15Z"/><path class="cls-2" d="M536.6,572.47c-.03,5.11-3.32,9.61-8.12,11.1-4.58,1.42-9.53-.37-12.54-4.48-4.75-6.48-2.55-15.11,2.83-19.08,4-2.95,8.68-2.78,12.41.46,3.18,2.77,5.45,7.77,5.42,11.99Z"/><path class="cls-1" d="M247.99,175.92c4.06,6.17,7.57,12.63,9.98,19.63,4.25,12.31,5.07,24.91,3.24,37.75-2.67,18.76-10.61,35.21-21.99,50.13-17.05,22.37-37.44,41.1-61.56,55.65-10.51,6.34-21.71,11.1-33.83,13.42-13.84,2.64-27.43,2.16-40.54-3.55-14.29-6.22-23.82-17.01-29.69-31.21-3.89-9.41-5.75-19.29-5.65-29.45.17-17.75,6.02-33.36,18.27-46.4,2.67-2.85,5.68-5.3,9.03-7.31,2.01-1.21,4.17-1.89,6.55-1.74,5.6.36,9.59,5.92,8.12,11.35-.48,1.78-1.33,3.38-2.35,4.9-2.12,3.16-4.44,6.18-6.87,9.11-4.72,5.68-8.37,11.9-9.81,19.26-2.42,12.46-1.21,24.49,4.63,35.83,5.63,10.95,14.74,17.13,26.98,18.61,10.07,1.22,19.72-.61,29.11-4.16,10.17-3.84,19.34-9.46,28.01-15.91,15.53-11.56,29.46-24.82,41.36-40.13,7.65-9.84,13.73-20.52,16.91-32.7,2.14-8.2,3.07-16.51,2.15-24.96-.93-8.58-4.03-16.41-8.59-23.68-3.95-6.29-8.44-12.1-14.65-16.36-9.15-6.26-19.27-8.55-30.25-7.47-9.8.96-18.98,4.14-28.1,7.62-13.26,5.07-26.05,11.17-38.76,17.46-11.58,5.72-23.34,11.03-35.58,15.22-10.85,3.71-21.99,5.72-33.43,4.5-22.36-2.38-38.46-13.68-47.24-34.61C-.06,168.38-.59,159.49.52,150.56c2.45-19.7,10.81-36.94,22.37-52.77,7.32-10.03,16.12-18.51,26.73-25.06,8.46-5.22,17.66-8.46,27.3-10.67,9.04-2.08,18.16-2.79,27.38-1.89,6.89.67,13.6,2.18,20.01,4.84,2.35.98,4.56,2.22,6.52,3.86,1.41,1.17,2.67,2.49,3.6,4.08,2,3.42,2.34,6.9.1,10.32-2.29,3.5-5.76,4.57-9.71,4.24-2.7-.23-5.24-1.19-7.75-2.17-7.41-2.9-15.11-4.26-23.04-3.79-17.19,1.03-32.52,6.65-44.87,19.07-12.8,12.87-21.6,28.05-25.83,45.76-1.56,6.53-2.31,13.18-.43,19.76,3.42,11.93,11.53,19.23,23.32,22.44,9.06,2.47,18.1,1.34,26.98-1.15,9.79-2.74,19.03-6.91,28.26-11.1,10.74-4.88,21.17-10.42,31.98-15.16,11.46-5.02,22.98-9.89,35.08-13.21,7.67-2.1,15.45-3.58,23.43-3.46,10.44.15,20.41,2.44,29.73,7.27.19.1.42.14.67.22.35-.67-.22-1.05-.44-1.48-4.42-8.64-6.46-17.84-6.27-27.51.26-12.84,3.55-25.03,8.31-36.86,1.47-3.65,3.47-7.16,6.98-9.08,2.98-1.64,4.93-3.96,6.86-6.6,5.5-7.53,13.21-11.96,21.97-14.62,16.3-4.95,31.92-3.36,46.77,5.13.82.47,1.65.91,2.66,1.46,2.02-3.92,3.73-7.87,5.11-11.97,2.01-5.97,2.87-12.16,3.77-18.36.27-1.81.76-3.57,1.55-5.22,3.51-7.31,12.62-8.77,18.25-2.94,1.68,1.74,2.8,3.82,3.62,6.08,2.35,6.48,4.08,13.15,6.12,19.73,3.15,10.13,6.35,20.25,10.49,30.03,1.95,4.6,4.15,9.08,7.07,13.16.93,1.29,1.94,2.5,3.15,3.55,1.3,1.14,2.65,1.23,4.16.48,2.04-1.02,3.6-2.58,4.95-4.36,2.91-3.83,4.79-8.19,6.32-12.7,2.23-6.55,3.39-13.33,4.28-20.17,1.53-11.84,1.46-23.72.86-35.61-.14-2.69-.46-5.38-.3-8.07.18-3.14.95-6.09,3.12-8.53,5.14-5.78,13.58-4.85,17.36,1.92,1.14,2.05,1.7,4.26,1.82,6.58.18,3.56.36,7.13.41,10.7.19,14.45,1.45,28.8,4.33,42.98.71,3.49,1.66,6.92,2.85,10.29,1.52,4.27,4.07,7.82,7.13,11.12,1.92,2.07,7.61,3.25,10.67,1.83,3.84-1.79,6.21-4.8,8.03-8.41,2.37-4.71,3.65-9.77,4.63-14.91.94-4.9,1.73-9.82,2.7-14.71.31-1.56-.12-2.42-1.42-3.32-7.89-5.44-13.11-12.78-15.31-22.14-1.79-7.61-.82-14.85,3.76-21.32,7-9.88,19.39-10.85,27.97-2.29,3.57,3.56,5.71,7.94,7.06,12.74,1.53,5.46,2.06,11.04,1.97,16.7-.03,2.05.01,2.09,2.1,1.97,5.17-.3,10.16-1.54,15.09-3.06,4.46-1.37,8.88-2.9,13.48-3.79,3.68-.72,7.35-1.06,11.08-.28,6.45,1.34,11.29,6.35,12.47,12.82.81,4.44.07,8.68-1.21,12.88-1.6,5.25-4.04,10.14-6.69,14.93-3.71,6.73-7.92,13.17-11.46,20-3.69,7.14-6.7,14.52-8.06,22.49-.52,3.06-.86,6.13-.26,9.22.15.78.27,1.56.51,2.31,1.15,3.62,3.2,4.93,7.01,4.47,3.14-.38,5.9-1.75,8.5-3.46,4.49-2.95,8.16-6.79,11.5-10.95,5.91-7.36,11.09-15.25,16.35-23.08,3.62-5.4,7.21-10.81,11.15-15.99,1.49-1.96,3.02-3.89,4.94-5.45,4.19-3.43,9.6-3.6,13.58-.44,4.01,3.18,5.37,8.56,2.94,13.27-1.85,3.58-4.13,6.94-6.32,10.33-7.65,11.88-14.4,24.23-19.78,37.31-2.27,5.52-3.89,11.2-4.39,17.19-.29,3.44-.01,6.82.82,10.14,1.36,5.42,4.83,8.32,10.6,8.5,7.14.22,13.61-1.69,18.91-6.79,4.75-4.56,9.55-9.07,13.46-14.41,1.83-2.5,3.45-5.13,4.85-7.89,1.1-2.15,1.02-1.77-.64-3.34-3.87-3.65-6.85-7.89-8.47-13-2.62-8.23-1.45-15.82,4.04-22.58,3.24-3.99,7.47-6.39,12.61-6.85,5.12-.45,9.48,1.43,13.15,4.95,3.75,3.61,5.54,8.21,6.54,13.2.74,3.69.71,7.41.42,11.13-.17,2.23-.18,2.25,1.95,2.36,3.88.2,7.76.36,11.64.57,5.16.28,10.25.98,15.13,2.8,3.21,1.2,6.26,2.73,8.9,4.93,7.18,6.02,9.58,13.77,7.83,22.82-1.36,7.03-5.04,12.94-9.51,18.39-3.18,3.87-6.73,7.39-10.58,10.58-5.13,4.25-10.33,8.4-15.46,12.66-3.66,3.04-7.21,6.22-10.08,10.06-2.42,3.24-3.58,6.84-3.1,10.92.3,2.51,1.25,4.74,2.67,6.78,3.78,5.45,8.51,9.58,15.23,10.96.54.11,1.07.28,1.6.44,2.71.81,2.3.69,3.57-1.59,7.61-13.66,18.52-23.62,33.23-29.14,7.81-2.93,15.81-3.41,23.69-.22,10.31,4.18,16.61,11.65,17.8,22.93.72,6.78-1.33,12.84-5.37,18.25-4.72,6.32-11.13,10.3-18.4,12.96-9.84,3.59-20.01,4.64-30.42,3.57-1.73-.18-3.49-.19-5.21-.44-1.13-.16-1.34.26-1.37,1.25-.18,5.1.33,10.14,1.56,15.09,2.06,8.3,5.19,16.13,10.47,22.96,2.1,2.71,4.6,5.03,7.17,7.28,2.39,2.08,4.83,4.11,7.2,6.22,2.79,2.48,5.41,5.15,7.32,8.4,2.54,4.33,1.84,9.05-1.76,12.03-2.33,1.93-5.02,2.64-8.01,1.93-3.37-.8-6.35-2.46-9.18-4.36-18.05-12.09-29.8-28.55-34.63-49.86-1.79-7.88-2.3-15.82-1.8-23.86.11-1.81.14-1.87-1.64-2.4-5.19-1.52-10.18-3.55-14.79-6.39-9.17-5.65-15.78-13.54-19.09-23.79-3.86-11.94-1.37-23,5.99-33.01,4.75-6.45,10.9-11.48,17.04-16.51,5.27-4.32,10.78-8.36,15.65-13.16,2.43-2.4,4.77-4.87,6.58-7.8.92-1.49,1.75-3.01,2.17-4.73.39-1.61.25-2.1-1.13-2.96-1.5-.93-3.18-1.36-4.91-1.69-2.74-.52-5.51-.68-8.28-.77-4.76-.15-9.51-.32-14.21-1.11-1.36-.23-2.19.09-2.83,1.39-5.1,10.28-12.2,19.12-20.34,27.06-8.77,8.55-19.1,14.22-31.6,15.45-5.98.59-11.71-.1-17.27-2.17-10.42-3.87-16.95-11.34-19.89-22-1.4-5.08-1.97-10.26-1.9-15.52,0-.6.25-1.24-.15-1.91-1.74.71-3.46,1.46-5.22,2.12-4.57,1.71-9.27,2.88-14.17,2.42-12.28-1.16-21.21-8.58-24.74-20.43-2.13-7.15-2.01-14.4-.71-21.66,2.31-12.89,7.74-24.55,14.33-35.74,3.78-6.41,7.78-12.7,10.9-19.48.13-.28.21-.57.32-.85-.62-.49-1.1-.03-1.58.12-6.81,2.09-13.59,4.31-20.69,5.25-3.07.41-6.15.63-9.24.7-2.68.06-2.26-.42-2.7,2.44-.84,5.4-1.87,10.76-3.03,16.1-1.76,8.04-4.54,15.65-9.44,22.38-4.87,6.68-10.97,11.66-19.18,13.55-12.07,2.77-22.77.13-31.79-8.54-2.7-2.59-5-5.52-6.85-8.78-.22-.39-.33-.92-1.03-1.19-1.06,2.21-2.18,4.42-3.49,6.52-3.8,6.07-8.4,11.33-14.89,14.66-10.75,5.51-21.11,3.67-29.61-4.14-3.59-3.3-6.38-7.25-8.88-11.41-4.17-6.96-7.15-14.47-9.94-22.05-1.22-3.3-2.36-6.64-3.68-10.38-1.7,3.72-3.51,6.93-5.29,10.16-.54.99.08,1.85.51,2.68,2.08,4.03,3.65,8.26,4.62,12.69,3.1,14.01,1.66,27.61-4.23,40.65-9.6,21.22-25.61,35.26-47.98,41.91-10.02,2.98-20,2.83-29.84-.91-.23-.15-.5-.35-.69,0-.04.08.19.31.3.47ZM240.75,103.84c-.17.32-.32.51-.38.72-1.47,5.76-2.75,11.56-2.99,17.52-.44,11.06,3.25,20.51,11.22,28.23,3.39,3.28,7.41,5.3,12.11,6.07,4.02.66,7.91.15,11.74-.91,12.58-3.51,22.35-10.91,29.59-21.72,6.22-9.28,8.92-19.49,8.01-30.65-.16-1.91-.6-3.75-1.04-5.6-.18-.74-.57-.91-1.19-.56-1.17.66-2.35,1.32-3.49,2.03-8.67,5.42-17.91,9.44-27.99,11.4-7.47,1.45-14.92,1.71-22.36-.24-4.8-1.26-9.22-3.26-13.23-6.29ZM294.64,79.44c-.17-.22-.23-.39-.36-.47-.4-.25-.81-.48-1.24-.68-10.92-5.04-21.77-4.61-32.52.54-1.79.86-3.39,2.06-4.68,3.6-3.11,3.71-1.76,4.72,1.49,6.09,2.67,1.12,5.53,1.3,8.4,1.2,10.71-.38,20.08-4.52,28.9-10.28ZM665.91,240.44c2.98,0,5.96.08,8.94-.02,4.78-.15,9.45-.99,13.91-2.79,2.75-1.11,5.29-2.55,7.19-4.9,2.09-2.59,1.74-5.2-.93-7.2-.9-.67-1.91-1.07-3.02-1.33-2.43-.57-4.76-.03-7,.75-7.99,2.78-14.09,8.05-19.08,14.74-.07.1,0,.29,0,.75Z"/><path class="cls-1" d="M21.4,497.13c-1.08-.29-1.98.19-2.92.25-3.75.24-7.44-.13-11.1-.9-1.41-.3-2.69-.93-3.76-1.94-1.17-1.11-1.84-2.37-1.21-4.03.64-1.68,2-2.7,3.84-2.58,1.41.09,2.83.33,4.22.66,5.48,1.3,10.69.36,15.76-1.77,2.38-1,4.35-2.58,6.07-4.48,3.04-3.35,5.62-7.07,8.36-10.66,2.16-2.84,4.37-5.64,6.59-8.43.85-1.06,1.84-1.95,3.35-2.02,2.44-.11,4.17,2,3.54,4.37-.27,1.01-.76,1.91-1.31,2.79-4.2,6.74-8.91,13.1-14.06,19.15-2.18,2.56-4.76,4.64-7.7,6.17,3.75,10.22,7.18,20.46,11.18,30.5,11.69,29.38,27.6,56.29,46.96,81.19,20.1,25.85,43.03,48.88,69.07,68.81,15.18,11.62,30.7,22.73,47.31,32.24,30.75,17.59,63.18,31.09,97.62,39.59,11.77,2.9,23.71,4.91,35.72,6.56,15.91,2.19,31.87,2.98,47.91,2.38,8.58-.32,17-1.78,25.35-3.66,8.73-1.97,17.33-4.42,25.85-7.13,2.12-.67,4.27-1.21,6.47-1.5,3.39-.44,6.25,1.63,6.53,4.72.21,2.31-1.02,3.91-2.79,5.17-1.9,1.34-4.06,2.11-6.25,2.84-6.17,2.04-12.44,3.71-18.71,5.39-11.42,3.06-22.99,5.35-34.81,5.93-9.27.46-18.57.51-27.82-.1-40.5-2.68-79.34-12.28-116.73-28.07-35.07-14.81-67.07-34.59-96.89-58.15-27.87-22.02-52.27-47.34-73.37-75.85-17.71-23.93-32.22-49.67-43-77.46-1.43-3.69-2.93-7.35-4.31-11.06-2.27-6.14-4.82-12.22-4.99-18.89Z"/><path class="cls-1" d="M280.8,680.58c-2.69,1.73-5.25,3.11-8,4.12-4.56,1.67-9.22,2.21-14.01,1.23-8.45-1.73-14.86-8.74-15.98-17.35-.32-2.43-.32-4.87-.29-7.45-3.74.84-7.35,1.66-11.01,2.15-7.58,1.02-15.17,1.44-22.68-.28-7.32-1.68-13.12-5.5-16.17-12.68-1.37-3.24-2.08-6.64-2.12-10.17-.02-2.45,0-4.9,0-7.46-1.69.23-3.3.48-4.93.66-1.74.19-3.47.23-5.19-.25-2.37-.66-4.19-1.9-4.68-4.49-.46-2.48.67-4.66,3.11-6.15,2.15-1.31,4.6-1.67,7-2.14,2.1-.41,4.21-.83,6.33-.96,1.55-.1,2.15-.87,2.66-2.16,3.4-8.69,8.06-16.66,13.88-23.96,9.05-11.33,20.6-19.37,33.61-25.47,5.98-2.81,12.19-4.89,18.85-5.37,3.61-.26,7.13.15,10.52,1.4,8.93,3.29,12.9,11.72,9.83,20.73-1.28,3.74-3.48,6.92-6.05,9.86-4.26,4.88-9.36,8.78-14.73,12.32-16.64,10.96-34.76,18.46-54.15,22.93-2.49.57-2.42.59-2.8,3.23-.48,3.4-.66,6.76.03,10.16.77,3.81,2.98,6.18,6.72,7.18,5.38,1.43,10.81,1.25,16.28.71,6.18-.61,12.12-2.3,18.11-3.76.86-.21,1.8-.55,2.56-.25,1.54.62,2.33-.28,3.3-1.14,7.23-6.38,15.71-8.92,25.25-8.12,4.85.41,9.54,1.48,13.96,3.56,1.87.88,3.64,1.95,5.03,3.53,1.97,2.24,2.93,4.71,1.57,7.62-.33.7-.22,1.15.28,1.68,1.88,2,2.13,4.34,1.31,6.86-1.05,3.23-2.14,6.46-3.21,9.68-.68,2.03-1.14,4.12-1.48,6.23-.69,4.22,1.03,6.62,5.22,7.59,2.49.57,5.05.44,7.54.91,1.33.25,2.66.53,3.84,1.19,1.99,1.12,3.29,2.77,3.2,5.17-.09,2.36-1.38,4-3.45,5.02-1.29.64-2.7.92-4.13,1.02-6,.42-11.67-.76-16.88-3.82-4.95-2.9-7.53-7.31-8.04-13.33ZM209.67,615.32c.7.3,1.2-.02,1.72-.16,8.82-2.38,17.28-5.7,25.52-9.63,9.12-4.34,17.75-9.46,25.43-16.08,2.48-2.14,4.71-4.49,6.28-7.39,2.11-3.92,1.11-5.88-3.28-6.64-3.05-.53-6.03-.06-8.9.84-15.72,4.87-28.84,13.61-39.01,26.63-3.01,3.86-5.53,8.04-7.75,12.43ZM287.27,654.21c-4.04-2.59-8.46-3.72-13.09-3.93-5.12-.22-9.94.89-14.03,4.14-3.91,3.11-5.51,7.24-4.81,12.18.67,4.7,4.02,7.33,8.79,7.05,1.36-.08,2.66-.34,3.94-.78,4.07-1.38,7.4-3.88,10.33-6.95,3.4-3.55,6.12-7.61,8.86-11.72Z"/><path class="cls-1" d="M137.06,574.32c-2.05.57-3.71.59-5.34.82-4.58.63-9.01-.03-13.35-1.39-9.89-3.1-16.95-11.99-17.58-22.28-.28-4.59,1.2-8.74,4.08-12.35,5.46-6.82,12.55-11.06,20.97-13.07,11.54-2.75,22.12-.07,32,6.05,3.73,2.31,7.04,5.14,9.86,8.5,1.38,1.65,2.54,3.41,3.08,5.56.59,2.35.17,4.42-1.5,6.15-.72.75-1.08,1.38-.76,2.49.46,1.62-.22,3.11-1.08,4.49-.86,1.36-2.03,2.41-3.24,3.45-4.08,3.52-8.12,7.09-11.69,11.15-2.33,2.65-4.07,5.62-5.07,9.04-1.25,4.29.45,10.31,5.73,12.41,1.1.44,2.17.98,3.17,1.61,2.83,1.79,3.93,4.45,3.01,7.03-1.03,2.88-3.99,4.63-7.23,4.15-3.52-.52-6.68-1.98-9.42-4.24-7.07-5.84-9.38-13.45-8.06-22.33.35-2.35,1.03-4.63,2.41-7.24ZM158.87,550.03c-.89-1.3-1.95-2.36-3.06-3.35-7.54-6.74-16.15-10.22-26.39-8.28-5.36,1.02-9.95,3.59-13.71,7.57-1.3,1.37-2.17,2.95-2.05,4.9.29,4.79,4.07,9.49,8.72,10.81,3.74,1.06,7.56.96,11.32.25,9.38-1.77,17.58-6.1,25.17-11.91Z"/><path class="cls-1" d="M576.3,45.13c.33-4.93,2.12-9.54,6.13-13.1,5.04-4.48,11.09-4.63,16.39-.46,3.85,3.04,6.59,6.71,7.4,11.73,1.44,8.94-5.73,18.2-14.76,18.55-5,.19-8.98-2.21-11.96-6.17-2.26-3.01-3.23-6.47-3.2-10.55Z"/><path class="cls-1" d="M180.68,531.22c-.02,1.13-.25,2.22-.59,3.28-1.26,3.96-5.84,5.24-8.99,2.52-1.37-1.18-2.13-2.74-2.7-4.4-1.24-3.6-1.84-7.35-2.53-11.08-.51-2.8-.85-5.62-1.24-8.44-.28-2,.06-3.94.68-5.84.74-2.25,2.4-3.56,4.65-3.9,2.23-.34,3.98.73,5.29,2.5,1.51,2.04,2,4.48,2.31,6.9.66,5.18,1.79,10.27,2.72,15.4.18,1.01.26,2.04.39,3.05Z"/></svg>