<svg xmlns="http://www.w3.org/2000/svg" viewBox="0 0 156 60"><g fill="none" fill-rule="evenodd"><path fill="#09F" d="M50.595 39.402h94.432V20.596H50.595z"/><path fill="#000C4A" d="M50.595 60h74.998V41.193H50.595z"/><path fill="#FA2C3E" d="M0 18.806h45.671V0H0z"/><path fill="#09F" d="M13.433 39.402h18.806V20.596H13.433z"/><path fill="#000C4A" d="M13.433 60h18.806V41.193H13.433z"/><path fill="#FA2C3E" d="M50.595 18.806H155.07V0H50.595z"/><path fill="#FFFFFE" d="M140.939 16.995h12.338V13.41h-8.168V11h7.297V7.676h-7.297v-2.3h8.06V1.79h-12.23v15.204zm-7.862.303c2.759 0 4.996-1.02 6.603-2.345V8.111h-6.993v3.086h2.998v1.844c-.63.413-1.413.631-2.434.631-2.41 0-4.126-1.76-4.126-4.215v-.041c0-2.326 1.693-4.17 3.888-4.17 1.498 0 2.584.52 3.67 1.432l2.475-2.976c-1.607-1.39-3.496-2.215-6.167-2.215-4.713 0-8.19 3.475-8.19 7.906v.043c0 4.604 3.541 7.862 8.276 7.862zM115.877 11l1.714-4.322L119.286 11h-3.409zm-6.755 5.995h4.43l1.087-2.715h5.862l1.11 2.715h4.516l-6.472-15.312h-4.06l-6.473 15.312zm-15.4 0h4.172V8.654l6.492 8.341h3.693V1.791h-4.17v8.037L97.654 1.79h-3.933v15.204zm-13.4 0h12.336V13.41h-8.166V11h7.297V7.676h-7.297v-2.3h8.058V1.79H80.322v15.204zm-13.508 0h12.334V13.41h-8.165V11h7.298V7.676h-7.298v-2.3h8.057V1.79H66.814v15.204zm-9.862 0h4.214V5.484h4.561V1.79H52.393v3.693h4.56v11.511zM133.896 29.686v-3.65h2.758c1.41 0 2.28.609 2.28 1.803v.043c0 1.11-.825 1.804-2.259 1.804h-2.779zm-4.214 7.905h4.214v-4.604h1.845l3.062 4.604h4.867l-3.628-5.299c1.889-.804 3.128-2.346 3.128-4.67v-.043c0-1.499-.457-2.672-1.348-3.54-1.02-1.044-2.627-1.652-4.952-1.652h-7.188v15.204zm-13.725 0h12.333v-3.584h-8.165v-2.41h7.3v-3.323h-7.3v-2.302h8.059v-3.585h-12.227v15.204zm-7.777.304c3.366 0 5.3-1.454 6.733-3.431l-3.172-2.259c-.91 1.107-1.846 1.846-3.43 1.846-2.129 0-3.628-1.782-3.628-4.062v-.043c0-2.216 1.5-4.018 3.628-4.018 1.454 0 2.455.695 3.322 1.781l3.171-2.455c-1.346-1.867-3.344-3.17-6.45-3.17-4.604 0-8.016 3.474-8.016 7.905v.044c0 4.54 3.498 7.862 7.842 7.862zm-23.498-.304h4.168v-8.34l6.495 8.34h3.692V22.387h-4.17v8.037l-6.256-8.037h-3.929v15.204zm-11.296-5.995l1.717-4.321 1.693 4.321h-3.41zm-6.754 5.995h4.43l1.087-2.715h5.864l1.107 2.715h4.518L77.165 22.28h-4.06L66.631 37.59zm-6.43.304c3.367 0 5.3-1.454 6.734-3.431l-3.171-2.259c-.912 1.107-1.847 1.846-3.432 1.846-2.128 0-3.628-1.782-3.628-4.062v-.043c0-2.216 1.5-4.018 3.628-4.018 1.454 0 2.454.695 3.323 1.781l3.171-2.455c-1.347-1.867-3.346-3.17-6.45-3.17-4.606 0-8.015 3.474-8.015 7.905v.044c0 4.54 3.498 7.862 7.84 7.862zM115.03 58.188h4.213v-11.51h4.56v-3.694h-13.336v3.693h4.563v11.511zm-11.36.26c3.692 0 6.146-1.845 6.146-4.952v-.043c0-2.845-2.171-3.974-5.67-4.735-2.104-.476-2.627-.782-2.627-1.477v-.044c0-.543.5-.976 1.522-.976 1.345 0 2.867.521 4.256 1.498l2.107-2.975c-1.65-1.325-3.672-2.02-6.256-2.02-3.648 0-5.884 2.041-5.884 4.864v.044c0 3.128 2.497 4.04 5.732 4.78 2.065.477 2.564.824 2.564 1.453v.043c0 .653-.608 1.043-1.738 1.043-1.76 0-3.433-.628-4.93-1.823l-2.346 2.8c1.868 1.673 4.431 2.52 7.125 2.52zm-14.835.023c4.323 0 7.125-2.152 7.125-7.06v-8.427h-4.279v8.558c0 2.129-1.107 3.128-2.802 3.128-1.693 0-2.801-1.043-2.801-3.237v-8.449h-4.279v8.536c0 4.756 2.715 6.95 7.036 6.95zm-17.592-8.189v-3.65h2.759c1.412 0 2.28.61 2.28 1.804v.043c0 1.108-.824 1.803-2.258 1.803h-2.781zm-4.213 7.906h4.213v-4.604h1.848l3.062 4.604h4.864l-3.628-5.3c1.891-.804 3.128-2.346 3.128-4.669v-.044c0-1.498-.455-2.672-1.345-3.54-1.022-1.043-2.628-1.65-4.953-1.65h-7.19v15.203zm-10.078 0h4.214v-11.51h4.561v-3.694H52.393v3.693h4.56v11.511z"/></g></svg>